<svg width="52" height="92" viewBox="0 0 52 92" xmlns="http://www.w3.org/2000/svg"><title>E141E5D8-40DD-4F2C-943D-2EC7419ACFC9</title><g transform="translate(2)" fill="none" fill-rule="evenodd"><path d="M16.022 16.322C6.688 19.525 0 28.19 0 38.38v28.242C0 79.53 10.746 90 24 90c13.257 0 24-10.466 24-23.38V38.38c0-10.178-6.676-18.837-15.995-22.048" stroke="#FFF" stroke-width="3" stroke-linecap="round" stroke-linejoin="round"/><rect fill="#28B5F5" x="20" y="30" width="8" height="14" rx="4"/><path d="M25.65 8.546V23.05c0 .904-.733 1.635-1.637 1.635-.911 0-1.638-.732-1.638-1.635V8.546h-2.873c-1.106 0-1.495-.73-.866-1.634l4.34-6.237c.628-.902 1.638-.888 2.25.022l4.161 6.193c.615.914.22 1.656-.89 1.656H25.65zM25.65 65.147V50.64c0-.904-.733-1.635-1.637-1.635-.911 0-1.638.732-1.638 1.635v14.506h-2.873c-1.106 0-1.495.73-.866 1.633l4.34 6.237c.628.902 1.638.888 2.25-.022l4.161-6.193c.615-.914.22-1.655-.89-1.655H25.65z" fill="#FFF"/></g></svg>